<mxfile host="65bd71144e">
    <diagram id="369GCw2oZIeCig0ZfLce" name="Page-1">
        <mxGraphModel dx="1744" dy="533" grid="1" gridSize="10" guides="1" tooltips="1" connect="1" arrows="1" fold="1" page="1" pageScale="1" pageWidth="827" pageHeight="1169" math="0" shadow="0">
            <root>
                <mxCell id="0"/>
                <mxCell id="1" parent="0"/>
                <mxCell id="32" value="Backend Processor&lt;br&gt;Python script" style="whiteSpace=wrap;html=1;labelBackgroundColor=none;dashed=1;align=right;verticalAlign=top;" vertex="1" parent="1">
                    <mxGeometry x="120" y="320" width="640" height="360" as="geometry"/>
                </mxCell>
                <mxCell id="11" style="edgeStyle=orthogonalEdgeStyle;rounded=0;orthogonalLoop=1;jettySize=auto;html=1;exitX=0;exitY=0.5;exitDx=0;exitDy=0;exitPerimeter=0;entryX=1;entryY=0.5;entryDx=0;entryDy=0;" edge="1" parent="1" source="7" target="15">
                    <mxGeometry relative="1" as="geometry">
                        <mxPoint x="560" y="480" as="targetPoint"/>
                    </mxGeometry>
                </mxCell>
                <mxCell id="12" value="json parser" style="edgeLabel;html=1;align=center;verticalAlign=middle;resizable=0;points=[];labelBackgroundColor=none;" vertex="1" connectable="0" parent="11">
                    <mxGeometry x="-0.2262" y="-1" relative="1" as="geometry">
                        <mxPoint x="-9" y="-14" as="offset"/>
                    </mxGeometry>
                </mxCell>
                <mxCell id="49" style="edgeStyle=orthogonalEdgeStyle;rounded=0;orthogonalLoop=1;jettySize=auto;html=1;exitX=0.04;exitY=0.04;exitDx=0;exitDy=0;exitPerimeter=0;entryX=0.75;entryY=0;entryDx=0;entryDy=0;" edge="1" parent="1" source="7" target="35">
                    <mxGeometry relative="1" as="geometry">
                        <Array as="points">
                            <mxPoint x="642" y="300"/>
                            <mxPoint x="50" y="300"/>
                        </Array>
                    </mxGeometry>
                </mxCell>
                <mxCell id="50" style="edgeStyle=orthogonalEdgeStyle;rounded=0;orthogonalLoop=1;jettySize=auto;html=1;exitX=0.04;exitY=0.96;exitDx=0;exitDy=0;exitPerimeter=0;entryX=0.75;entryY=1;entryDx=0;entryDy=0;" edge="1" parent="1" source="7" target="46">
                    <mxGeometry relative="1" as="geometry">
                        <Array as="points">
                            <mxPoint x="642" y="720"/>
                            <mxPoint x="50" y="720"/>
                        </Array>
                    </mxGeometry>
                </mxCell>
                <mxCell id="7" value="Financial News&lt;br&gt;json files" style="verticalLabelPosition=bottom;html=1;verticalAlign=top;align=center;shape=mxgraph.azure.code_file;pointerEvents=1;fillColor=#FFFFFF;" vertex="1" parent="1">
                    <mxGeometry x="640" y="455" width="47.5" height="50" as="geometry"/>
                </mxCell>
                <mxCell id="19" style="edgeStyle=orthogonalEdgeStyle;rounded=0;orthogonalLoop=1;jettySize=auto;html=1;exitX=0;exitY=0.5;exitDx=0;exitDy=0;entryX=1;entryY=0.5;entryDx=0;entryDy=0;entryPerimeter=0;" edge="1" parent="1" source="15" target="18">
                    <mxGeometry relative="1" as="geometry"/>
                </mxCell>
                <mxCell id="20" value="Text Processing" style="edgeLabel;html=1;align=center;verticalAlign=middle;resizable=0;points=[];labelBackgroundColor=none;" vertex="1" connectable="0" parent="19">
                    <mxGeometry x="0.3015" y="1" relative="1" as="geometry">
                        <mxPoint x="14" y="-11" as="offset"/>
                    </mxGeometry>
                </mxCell>
                <mxCell id="23" value="Word Separation&lt;br&gt;Stopword Elimination&lt;br&gt;Stemming" style="edgeLabel;html=1;align=center;verticalAlign=middle;resizable=0;points=[];labelBackgroundColor=none;" vertex="1" connectable="0" parent="19">
                    <mxGeometry x="-0.2763" y="4" relative="1" as="geometry">
                        <mxPoint x="-22" y="16" as="offset"/>
                    </mxGeometry>
                </mxCell>
                <mxCell id="15" value="[ ..., ... ]" style="whiteSpace=wrap;html=1;" vertex="1" parent="1">
                    <mxGeometry x="480" y="440" width="80" height="80" as="geometry"/>
                </mxCell>
                <mxCell id="17" value="Python representation" style="text;html=1;align=center;verticalAlign=middle;resizable=0;points=[];autosize=1;strokeColor=none;" vertex="1" parent="1">
                    <mxGeometry x="455" y="520" width="130" height="20" as="geometry"/>
                </mxCell>
                <mxCell id="27" style="edgeStyle=orthogonalEdgeStyle;rounded=0;orthogonalLoop=1;jettySize=auto;html=1;exitX=0.04;exitY=0.04;exitDx=0;exitDy=0;exitPerimeter=0;entryX=1;entryY=0.5;entryDx=0;entryDy=0;entryPerimeter=0;" edge="1" parent="1" source="18" target="25">
                    <mxGeometry relative="1" as="geometry">
                        <Array as="points">
                            <mxPoint x="280" y="457"/>
                            <mxPoint x="280" y="375"/>
                        </Array>
                    </mxGeometry>
                </mxCell>
                <mxCell id="28" value="Inverted Index Building" style="edgeLabel;html=1;align=center;verticalAlign=middle;resizable=0;points=[];" vertex="1" connectable="0" parent="27">
                    <mxGeometry x="-0.2716" y="-2" relative="1" as="geometry">
                        <mxPoint x="48" y="-2" as="offset"/>
                    </mxGeometry>
                </mxCell>
                <mxCell id="30" style="edgeStyle=orthogonalEdgeStyle;rounded=0;orthogonalLoop=1;jettySize=auto;html=1;exitX=0.04;exitY=0.96;exitDx=0;exitDy=0;exitPerimeter=0;entryX=1;entryY=0.5;entryDx=0;entryDy=0;entryPerimeter=0;" edge="1" parent="1" source="18" target="29">
                    <mxGeometry relative="1" as="geometry">
                        <Array as="points">
                            <mxPoint x="280" y="503"/>
                            <mxPoint x="280" y="585"/>
                        </Array>
                    </mxGeometry>
                </mxCell>
                <mxCell id="31" value="tf-idf Matrix Building" style="edgeLabel;html=1;align=center;verticalAlign=middle;resizable=0;points=[];" vertex="1" connectable="0" parent="30">
                    <mxGeometry x="0.2665" y="-1" relative="1" as="geometry">
                        <mxPoint x="41" y="-10" as="offset"/>
                    </mxGeometry>
                </mxCell>
                <mxCell id="18" value="Corpus&lt;br&gt;json file" style="verticalLabelPosition=bottom;html=1;verticalAlign=top;align=center;shape=mxgraph.azure.code_file;pointerEvents=1;fillColor=#FFFFFF;" vertex="1" parent="1">
                    <mxGeometry x="310" y="455" width="47.5" height="50" as="geometry"/>
                </mxCell>
                <mxCell id="37" style="edgeStyle=orthogonalEdgeStyle;rounded=0;orthogonalLoop=1;jettySize=auto;html=1;exitX=0;exitY=0.5;exitDx=0;exitDy=0;exitPerimeter=0;entryX=1;entryY=0.5;entryDx=0;entryDy=0;" edge="1" parent="1" source="25" target="35">
                    <mxGeometry relative="1" as="geometry">
                        <mxPoint x="60" y="375" as="targetPoint"/>
                    </mxGeometry>
                </mxCell>
                <mxCell id="25" value="Inverted Index Database&lt;br&gt;json file" style="verticalLabelPosition=bottom;html=1;verticalAlign=top;align=center;shape=mxgraph.azure.code_file;pointerEvents=1;fillColor=#FFFFFF;" vertex="1" parent="1">
                    <mxGeometry x="190" y="350" width="47.5" height="50" as="geometry"/>
                </mxCell>
                <mxCell id="47" style="edgeStyle=orthogonalEdgeStyle;rounded=0;orthogonalLoop=1;jettySize=auto;html=1;exitX=0;exitY=0.5;exitDx=0;exitDy=0;exitPerimeter=0;entryX=1;entryY=0.5;entryDx=0;entryDy=0;" edge="1" parent="1" source="29" target="46">
                    <mxGeometry relative="1" as="geometry"/>
                </mxCell>
                <mxCell id="29" value="tf-idf Matrix Database&lt;br&gt;json file" style="verticalLabelPosition=bottom;html=1;verticalAlign=top;align=center;shape=mxgraph.azure.code_file;pointerEvents=1;fillColor=#FFFFFF;" vertex="1" parent="1">
                    <mxGeometry x="190" y="560" width="47.5" height="50" as="geometry"/>
                </mxCell>
                <mxCell id="33" value="Search Results&lt;br&gt;HTML Display" style="verticalLabelPosition=bottom;html=1;verticalAlign=top;align=center;shape=mxgraph.azure.script_file;pointerEvents=1;dashed=1;fillColor=#FFFFFF;" vertex="1" parent="1">
                    <mxGeometry x="-130" y="350" width="47.5" height="50" as="geometry"/>
                </mxCell>
                <mxCell id="39" style="edgeStyle=orthogonalEdgeStyle;rounded=0;orthogonalLoop=1;jettySize=auto;html=1;entryX=0.5;entryY=0;entryDx=0;entryDy=0;" edge="1" parent="1" target="35">
                    <mxGeometry relative="1" as="geometry">
                        <mxPoint x="20" y="260" as="targetPoint"/>
                        <mxPoint x="20" y="280" as="sourcePoint"/>
                    </mxGeometry>
                </mxCell>
                <mxCell id="40" value="User Query" style="edgeLabel;html=1;align=center;verticalAlign=middle;resizable=0;points=[];" vertex="1" connectable="0" parent="39">
                    <mxGeometry x="-0.7969" relative="1" as="geometry">
                        <mxPoint y="-6" as="offset"/>
                    </mxGeometry>
                </mxCell>
                <mxCell id="41" style="edgeStyle=orthogonalEdgeStyle;rounded=0;orthogonalLoop=1;jettySize=auto;html=1;exitX=0;exitY=0.5;exitDx=0;exitDy=0;entryX=1;entryY=0.5;entryDx=0;entryDy=0;entryPerimeter=0;" edge="1" parent="1" source="35" target="33">
                    <mxGeometry relative="1" as="geometry"/>
                </mxCell>
                <mxCell id="35" value="bool_search.py" style="whiteSpace=wrap;html=1;verticalAlign=middle;" vertex="1" parent="1">
                    <mxGeometry x="-40" y="342.5" width="120" height="65" as="geometry"/>
                </mxCell>
                <mxCell id="42" value="Search Results&lt;br&gt;HTML Display" style="verticalLabelPosition=bottom;html=1;verticalAlign=top;align=center;shape=mxgraph.azure.script_file;pointerEvents=1;dashed=1;fillColor=#FFFFFF;" vertex="1" parent="1">
                    <mxGeometry x="-130" y="560" width="47.5" height="50" as="geometry"/>
                </mxCell>
                <mxCell id="43" style="edgeStyle=orthogonalEdgeStyle;rounded=0;orthogonalLoop=1;jettySize=auto;html=1;entryX=0.5;entryY=1;entryDx=0;entryDy=0;" edge="1" parent="1" target="46">
                    <mxGeometry relative="1" as="geometry">
                        <mxPoint x="20" y="777.5" as="targetPoint"/>
                        <mxPoint x="20" y="660" as="sourcePoint"/>
                    </mxGeometry>
                </mxCell>
                <mxCell id="44" value="User Query" style="edgeLabel;html=1;align=center;verticalAlign=middle;resizable=0;points=[];" vertex="1" connectable="0" parent="43">
                    <mxGeometry x="-0.7969" relative="1" as="geometry">
                        <mxPoint y="16" as="offset"/>
                    </mxGeometry>
                </mxCell>
                <mxCell id="45" style="edgeStyle=orthogonalEdgeStyle;rounded=0;orthogonalLoop=1;jettySize=auto;html=1;exitX=0;exitY=0.5;exitDx=0;exitDy=0;entryX=1;entryY=0.5;entryDx=0;entryDy=0;entryPerimeter=0;" edge="1" parent="1" source="46" target="42">
                    <mxGeometry relative="1" as="geometry"/>
                </mxCell>
                <mxCell id="46" value="semantic_search.py" style="whiteSpace=wrap;html=1;verticalAlign=middle;" vertex="1" parent="1">
                    <mxGeometry x="-40" y="552.5" width="120" height="65" as="geometry"/>
                </mxCell>
            </root>
        </mxGraphModel>
    </diagram>
</mxfile>